# xmcd CD database file
#
# Track frame offsets:
#	150
#	19841
#	42666
#	62292
#	79272
#	99329
#	115123
#	133929
#	151979
#	171250
#	192459
#	213340
#	228345
#	246947
#	266327
#
# Disc length: 3772 seconds
#
# Revision: 1
# Processed by: cddbd v1.5.2PL0 Copyright (c) Steve Scherf et al.
# Submitted via: CDex 1.51
#
DISCID=cb0eba0f
DTITLE=Various Artist - STTW-1272
DYEAR=1900
DGENRE=Blues
TTITLE0=Kelly And Ozzy Osbourne - Changes
TTITLE1=Robbie Williams - Something Beautiful
TTITLE2=Ronan Keating - She Believes In Me
TTITLE3=Westlife - Obvious
TTITLE4=Katie Melua - The Closest Thing To Crazy
TTITLE5=Norah Jones - Come Away With Me
TTITLE6=Peter Andre Ft Bubber Ranx - Mysterious Girl
TTITLE7=Blue - Guilty
TTITLE8=Dido - White Flag
TTITLE9=Madonna - Hollywood
TTITLE10=Evanescence - My Immortal
TTITLE11=Michael Andrews FT Gary Jules - Mad World
TTITLE12=Amy Studt - All I Wanna Do
TTITLE13=Shania Twain - Thank You Baby
TTITLE14=Busted - Who's David
EXTD=
EXTT0=
EXTT1=
EXTT2=
EXTT3=
EXTT4=
EXTT5=
EXTT6=
EXTT7=
EXTT8=
EXTT9=
EXTT10=
EXTT11=
EXTT12=
EXTT13=
EXTT14=
PLAYORDER=
